<?xml version="1.0" encoding="utf-8"?>
<!-- Generator: Adobe Illustrator 24.3.0, SVG Export Plug-In . SVG Version: 6.00 Build 0)  -->
<svg version="1.1" xmlns="http://www.w3.org/2000/svg" xmlns:xlink="http://www.w3.org/1999/xlink" x="0px" y="0px"
	 viewBox="0 0 841 841" style="enable-background:new 0 0 841 841;" xml:space="preserve">
<style type="text/css">
	.st0{fill:url(#SVGID_1_);stroke:#000000;stroke-width:25;stroke-miterlimit:10;}
	.st1{fill:#020203;stroke:#1F1C1C;stroke-miterlimit:10;}
	.st2{fill:#020203;}
</style>
<g id="Layer_1">
	<linearGradient id="SVGID_1_" gradientUnits="userSpaceOnUse" x1="429.231" y1="130.2951" x2="421.1014" y2="704.2375">
		<stop  offset="0.1376" style="stop-color:#F0801D"/>
		<stop  offset="0.3519" style="stop-color:#C6815E"/>
		<stop  offset="0.5824" style="stop-color:#927E8C"/>
		<stop  offset="0.7752" style="stop-color:#607AA8"/>
		<stop  offset="0.9199" style="stop-color:#3376B6"/>
		<stop  offset="1" style="stop-color:#1275BB"/>
	</linearGradient>
	<path class="st0" d="M643.5,703h-437c-37.8,0-68.5-30.7-68.5-68.5v-411c0-37.8,30.7-68.5,68.5-68.5h437c37.8,0,68.5,30.7,68.5,68.5
		v411C712,672.3,681.3,703,643.5,703z"/>
	<path class="st1" d="M303.4,183.6h0.6h6.6l11.6,15.7l18,19.8l10.6,10.3l13.1,9.5l11.1,6.4l10.3,5.9l14.9,6.4l11.1,3.1l12.8,2.3
		l9.6,1.3h9.3h5.1l9.5-1.3l11.3-2.1l14.4-5.4l14.9-7.2l16-11.6l10-9.3l10.3-11.6l6.2-9.3l3.6-4.9l3.1,0.3v2.3v4.6l1.5,9.3l2.1,9
		l5.4,19.6l2.8,10l5.7,15.7l3.3,8.8l5.1,10.6l3.9,7.7l8.2,15.4l7,12.1l9,12.1l11.3,15.7l13.4,15.7l12.6,13.4l11.1,9.5l8.9,6.2v3.1
		h-4.8l-5.4,2.1l-9.8,5.4l-6.7,4.9l-8,7.7l-3.9,4.4h-2.8l-3.3-8.2l-7.5-20.3l-4.6-10l-6.7-11.8l-5.7-9.8l-8.2-11.1l-9.3-10.8
		l-4.6-4.6l-7-6.2l-6.7-6.1l-11.1-6.5l-10-5.3l-5.5-2.5l-8.9-3.3l-9-2.9l-7.3-1.5l-7.9-1.4l-10-1.3l-6.5-0.6l-7-0.3l-7.2,0.1
		l-7.4,0.6l-7,0.6l-8.4,1.5l-8.3,2l-11,3.8l-9,3.8l-8.8,4.2l-6.1,3.5l-6.8,4.2l-5.7,3.7l-3.6,2.6l-5.8,5l-5.5,4.7l-4.8,4.3l-3.5,3.3
		l-4.3,4.6l-3.8,4.5l-5.2,5.9l-5.9,7.4l-4.2,6.1l-2.8,4.2l-1.8,2.6l-2.6,4.2l-4.1,7l-4.7,8l-3.8,7.7l-3,6.4l-4,9.3l-4.3,10.3l-2.8,8
		l-3,9.8l-2,7l-1.4,5.4l-1.3,3.7l-1,1.2l-1.3,0.7h-3.2c0,0-0.9-0.2-0.7-1.9s0-5.4,0-5.4l-0.6-8.5l-1-10.6l-2.1-9.6l-1.9-7.5
		l-2.4-6.4l-2.3-5.4l-2.7-5.3l-4.1-6.5l-4-5.7l-4.6-5.4l-5.7-4.9l-4.1-3.1l-4.4-2.6l-6-2.6l-6.2-1.8l-6.2-1.2l-5.2-0.9l-6.5-0.5
		l-9.6-0.2l-7,0.4l-7,1l-6.2,1.1l-5.6,1.3l-2.9,0.8c0,0-1.7-2.7,0.5-4.4s6-4.5,6-4.5l6.8-5l7.8-6.2l7.1-6.2l4.6-4.1l6-5.4l5.3-5.1
		l5.4-5.9l6.1-6.6l4-4.6l5.6-6.5l6.5-9.1l5.8-7.9l6.2-9.6l4.8-8.1l3.4-6.4l3.7-7l2.9-6l4.3-10.5l3.5-8.5l2.6-8l2.9-9.9l2.6-8.8
		l1.7-7.6l1.4-6.9l1.4-8.6l1-9.6l0.1-2.6H303.4z"/>
	<g transform="translate(0.000000,825.000000) scale(0.100000,-0.100000)">
		<path class="st2" d="M4341.4,3655c-79.4-3-171.8-54-272.9-150.7c-198.5-190.1-403.3-539.1-501.2-853.8
			c-21.4-68.8-29.2-101.5-42.2-176c-13.2-75.7-16.2-105.2-16.1-158.1c0.9-159.8,58.6-260.5,170.5-297.4
			c53.2-17.6,109-16.4,168.3,3.3c56.3,18.7,105.4,45.6,176.8,96.9c62.6,44.9,104.9,80.6,215,181.9c35.3,32.6,74.8,68.2,87.7,78.9
			l23.5,20l508.7-88.7l508.7-88.7l15.4-26.8c8.6-14.5,35.6-65,60.4-112.2c72.9-139.3,101.3-187.1,151-256.5
			c42.2-58.5,72.6-92.4,112.3-124.9c51.9-42.3,105.5-63.8,163.9-65.2c27.4-0.7,50.5,2.3,75,9.7c152.7,45.9,241.5,266.6,245.8,610.3
			c3.4,276.5-53.8,596.2-147.9,828.1c-30.4,74.8-61.1,132.4-99.3,187.2c-45.2,64.6-84.5,101.1-134.1,124.8
			c-15.5,7.6-16.5,7.8-192.3,39.1c-171.6,30.6-177,31.3-190.9,29.7c-18.5-2.3-47-14.2-94.2-39.2c-42.5-22.4-65.3-32.1-82.2-35.1
			c-10.8-1.8-22.2,0-197.8,30.6c-175.6,30.6-187,32.8-196.5,38.1c-14.9,8.6-33.1,25.4-65.5,60.9c-35.8,39.3-58.6,60.1-75,68.5
			c-12.1,6.2-18.5,7.5-184.7,36.2C4373.5,3653.4,4358.1,3655.7,4341.4,3655z M5685.3,3155.6c20.8-9,36.9-29,40.7-51.4
			c2.2-12.1-1.7-34-7.8-44.7c-25.5-45-89.5-47.3-117.1-4.3c-10.9,16.8-13.1,28.5-9.5,49.4c2.3,13.4,4.5,19.7,9.1,26.3
			c11.9,17.1,31.6,28.4,52.8,30.2C5666.4,3162.3,5671.4,3161.4,5685.3,3155.6z M4380.2,3278.4l-12.8-73.4l73.4-12.8l73.4-12.8
			l-8.9-48.8l-9.1-48.5l-72.8,12.9l-73,12.7l-13.3-73.8l-13.5-74l-49.1,7.9l-49.3,8.2l13,74.5l13,74.5l-73.4,12.8l-73.4,12.8
			l8.5,48.6l8.5,48.6l73.4-12.8l73.4-12.8l12.8,73.4l12.8,73.4l49.7-8.7l49.7-8.7L4380.2,3278.4z M5490.9,3018.9
			c21.4-9.1,38.6-31.9,41-54.5c1.5-13.5-4.6-37.6-12.2-48.2c-8.7-11.9-24.4-22.6-39.2-26.6c-17.9-4.8-41-0.5-56,10.2
			c-12.5,9-23.7,25.2-27.6,40c-4,14.8,0.7,42.1,9.3,54.4c12.2,17.5,33.3,29.4,54.6,30.6C5472.7,3025.5,5478,3024.4,5490.9,3018.9z
			 M5838.4,2952.8c21.4-15.7,31-39.7,26.4-66.4c-2.3-13.4-4.1-17.4-11.9-28.2c-16.3-22.5-39.9-32.1-67-27.3
			c-27.3,5-46.1,21.9-53.8,48.4c-3.7,12.8-4.1,16.9-1.7,30.6c2.4,12.4,4.4,17.8,10.3,26.1
			C5763.4,2969.1,5805.8,2976.4,5838.4,2952.8z M5642.7,2814.7c12.1-8.7,22.6-24.4,26.6-39.2c4.4-16.3,0.6-40.8-8.6-54.3
			c-8.6-12.6-24.4-24.1-39.5-28.3c-10.8-3.2-15.1-3.3-30.2-0.7c-15.1,2.6-19.1,4.2-28.4,10.9c-31.6,23-37.8,69.1-13,98.8
			c8.4,10.3,28.2,22.6,39.9,24.6C5603.7,2829.2,5631.3,2822.8,5642.7,2814.7z M4663.9,2711c48-19.2,83.1-68.8,85.6-121.7
			c1.5-33.1-11.2-69-33.2-94.8c-14-16.5-40-33.7-61-40.3c-24.1-7.5-41.8-8.9-65.8-4.7c-53,9-94.3,46.1-108.8,97.4
			c-6.6,23.5-7.1,37.3-2.8,61.2c9.5,53.1,45.6,92.9,97.7,107.9C4604.2,2724.1,4635.4,2722.3,4663.9,2711z M5236.5,2611.1
			c27.3-10.9,54.4-35.3,68.4-61.2c15.5-28.7,19.7-57.1,13.8-90.7c-6.9-38.2-25.7-66.5-59-88.8c-30.6-20.5-62.9-27.2-99.3-20.6
			c-36.6,6.6-66.5,25.5-87.3,55.3c-21,30.1-28.6,59.8-24.4,94.8c3,25.7,10.6,45,26.3,66.4c22.9,31,64.7,53.3,102.9,54.8
			C5196.2,2622,5219.8,2617.9,5236.5,2611.1z"/>
	</g>
</g>
<g id="Layer_2">
</g>
</svg>
